<svg width="926" height="634" viewBox="0 0 926 634" fill="none" xmlns="http://www.w3.org/2000/svg">
<path d="M406.561 186.154L362.963 63.4564H378.223L409.053 155.324L419.018 124.494C419.641 122.314 420.575 120.134 421.198 117.954C421.821 115.774 422.132 113.594 422.132 111.103C422.132 108.923 422.132 107.366 421.821 106.432C421.509 105.497 421.509 104.252 421.198 103.629C420.886 102.695 420.886 102.072 420.575 101.76C420.263 101.449 420.264 100.515 420.264 99.8919C420.264 98.3349 420.886 97.712 422.443 97.712C423.066 97.712 423.689 98.0234 424.623 98.9577C425.558 99.8919 426.492 100.826 427.115 102.383C428.049 103.629 428.672 105.497 429.295 107.366C429.917 109.234 430.229 111.103 430.229 112.971C430.229 114.84 430.229 117.02 429.606 119.2C428.983 121.38 428.672 123.248 428.049 125.116L406.561 186.154ZM463.239 186.154L419.641 63.4564H434.9L465.73 155.324L497.183 63.4564H506.214L463.239 186.154ZM501.543 146.915C501.543 140.999 502.477 135.705 504.345 131.033C506.214 126.362 508.705 122.002 512.131 118.888C515.245 115.463 519.293 112.971 523.653 111.103C528.013 109.234 532.684 108.3 537.667 108.3C542.649 108.3 547.32 109.234 551.68 111.103C556.04 112.971 559.777 115.463 563.203 118.888C566.317 122.314 569.119 126.362 570.988 131.033C572.856 135.705 573.791 140.999 573.791 146.915C573.791 152.832 572.856 157.815 570.988 162.798C569.119 167.78 566.628 171.517 563.203 174.943C560.088 178.368 556.04 180.86 551.68 182.728C547.32 184.597 542.649 185.531 537.667 185.531C532.684 185.531 528.013 184.597 523.653 182.728C519.293 180.86 515.556 178.368 512.131 174.943C509.017 171.517 506.214 167.469 504.345 162.798C502.477 158.126 501.543 152.521 501.543 146.915ZM514.933 146.915C514.933 151.898 515.556 156.569 516.49 160.618C517.425 164.666 518.982 168.092 521.162 170.894C523.342 173.697 525.521 175.877 528.324 177.434C531.127 178.991 534.241 179.925 537.355 179.925C540.469 179.925 543.584 178.991 546.386 177.434C549.189 175.877 551.68 173.697 553.549 170.894C555.417 168.092 556.974 164.666 558.22 160.618C559.466 156.569 559.777 151.898 559.777 146.915C559.777 141.933 559.154 137.262 558.22 133.213C557.286 129.165 555.729 125.739 553.549 122.937C551.68 120.134 549.189 117.954 546.386 116.397C543.584 114.84 540.469 113.906 537.355 113.906C534.241 113.906 531.127 114.84 528.324 116.397C525.521 117.954 523.03 120.134 521.162 122.937C519.293 125.739 517.736 129.165 516.49 133.213C515.556 137.262 514.933 141.621 514.933 146.915ZM615.52 114.217C613.029 114.217 610.849 114.84 608.669 116.085C606.801 117.331 604.932 118.577 603.686 120.445C602.441 122.314 601.507 124.494 600.572 126.985C599.949 129.476 599.638 131.968 599.638 134.459V183.351H586.247V124.182C588.739 119.822 592.164 116.085 597.147 112.971C601.818 109.857 608.046 107.989 615.209 107.989C616.766 107.989 618.323 108.3 619.88 108.611C621.437 109.234 622.994 109.857 624.24 110.48C625.485 111.103 626.731 112.037 627.354 112.971C628.288 113.906 628.6 114.84 628.6 115.774C628.6 117.02 627.977 117.643 626.42 117.643C625.485 117.643 623.928 117.02 622.06 115.774C620.814 114.84 618.323 114.217 615.52 114.217ZM651.956 183.351H638.565V63.4564H651.956V183.351ZM719.844 180.548C714.861 183.662 708.633 185.531 701.47 185.531C696.488 185.531 691.817 184.597 687.457 182.728C683.097 180.86 679.36 178.368 675.934 174.943C672.82 171.517 670.018 167.469 668.149 162.798C666.281 158.126 665.346 152.832 665.346 146.915C665.346 140.999 666.281 135.705 668.149 131.033C670.018 126.362 672.198 122.002 675.312 118.888C678.426 115.463 681.851 112.971 686.211 111.103C690.26 109.234 694.931 108.3 699.602 108.3C701.159 108.3 702.716 108.612 704.273 108.923C705.83 109.234 707.387 109.857 708.633 110.791C709.879 111.414 711.124 112.348 711.747 113.283C712.681 114.217 712.993 115.151 712.993 115.774C712.993 117.02 712.37 117.643 710.813 117.643C709.879 117.643 708.322 117.02 706.765 116.085C705.208 115.151 703.028 114.528 700.225 114.528C693.997 114.528 689.014 117.331 684.966 123.248C680.917 128.853 679.049 136.95 679.049 147.227C679.049 157.504 681.229 165.289 685.277 170.894C689.325 176.5 694.619 179.303 701.47 179.303C706.765 179.303 710.813 177.745 713.616 174.32C716.418 170.894 717.975 165.912 717.975 159.683V63.7679H731.366V169.649C728.564 173.697 724.827 177.434 719.844 180.548Z" fill="#61BFB7"/>
<path d="M406.561 332.518L362.963 209.821H378.223L409.053 301.688L419.018 270.858C419.641 268.678 420.575 266.498 421.198 264.319C421.821 262.139 422.132 259.959 422.132 257.468C422.132 255.288 422.132 253.731 421.821 252.796C421.509 251.862 421.509 250.616 421.198 249.994C420.886 249.059 420.886 248.437 420.575 248.125C420.263 247.814 420.264 246.879 420.264 246.257C420.264 244.7 420.886 244.077 422.443 244.077C423.066 244.077 423.689 244.388 424.623 245.322C425.558 246.257 426.492 247.191 427.115 248.748C428.049 249.994 428.672 251.862 429.295 253.731C429.917 255.599 430.229 257.467 430.229 259.336C430.229 261.204 430.229 263.384 429.606 265.564C428.983 267.744 428.672 269.613 428.049 271.481L406.561 332.518ZM463.239 332.518L419.641 209.821H434.9L465.73 301.688L497.183 209.821H506.214L463.239 332.518ZM556.04 278.021C556.04 275.529 555.729 273.038 554.794 270.858C553.86 268.678 552.926 266.81 551.369 264.941C549.812 263.384 548.255 262.139 546.386 261.204C544.518 260.27 542.649 259.959 540.781 259.959C534.241 259.959 528.947 263.073 524.899 268.99C520.85 274.907 518.982 283.003 518.982 292.969C518.982 297.951 519.605 302.623 521.162 306.359C522.407 310.096 524.276 313.522 526.767 316.013C529.258 318.505 531.75 320.685 534.864 321.93C537.978 323.176 541.092 324.11 544.206 324.11C548.255 324.11 551.369 323.487 553.86 322.553C556.352 321.619 558.22 320.373 559.777 319.127C561.334 317.882 562.58 316.636 563.514 315.702C564.448 314.768 565.071 314.145 566.005 314.145C567.562 314.145 568.185 314.768 568.185 316.325C568.185 317.882 567.251 319.75 565.694 321.619C564.137 323.487 561.957 325.356 559.466 326.913C556.974 328.47 554.172 329.716 550.746 330.65C547.632 331.584 544.518 332.207 541.404 332.207C536.11 332.207 531.438 331.273 527.079 329.404C522.719 327.536 518.982 325.044 515.868 321.619C512.753 318.193 510.262 314.145 508.394 309.474C506.525 304.802 505.591 299.508 505.591 293.591C505.591 287.675 506.525 282.381 508.394 277.709C510.262 273.038 512.753 268.678 515.868 265.564C518.982 262.139 522.719 259.647 527.079 257.779C531.438 255.91 536.11 254.976 541.092 254.976C544.829 254.976 548.255 255.599 551.68 256.845C555.106 258.09 557.909 259.959 560.711 262.139C563.203 264.319 565.382 266.81 566.94 269.613C568.497 272.415 569.119 275.53 569.119 278.955C569.119 283.003 568.497 286.74 566.94 289.855C565.382 293.28 563.514 296.083 561.023 298.574C558.531 301.065 555.729 302.934 552.303 304.491C548.878 306.048 545.452 306.671 541.715 306.671C536.732 306.671 532.684 306.048 529.258 304.802C526.144 303.557 524.587 302 524.587 299.82C524.587 298.263 525.21 297.64 526.456 297.64C527.39 297.64 528.947 297.951 530.504 298.886C532.061 299.82 534.864 300.131 538.912 300.131C541.092 300.131 543.583 299.508 545.452 298.574C547.632 297.64 549.5 296.083 551.057 294.214C552.615 292.346 553.86 289.855 554.794 287.363C555.729 283.938 556.04 281.135 556.04 278.021ZM599.015 329.716H585.624V209.821H599.015V329.716ZM633.894 329.716H620.503V209.821H633.894V329.716ZM655.381 270.547C657.873 266.187 661.609 262.45 666.592 259.336C671.575 256.222 677.803 254.353 684.966 254.353C689.637 254.353 693.997 255.288 697.733 256.845C701.47 258.402 704.585 260.582 706.765 263.073C709.256 265.876 711.124 268.678 712.059 272.415C713.304 275.841 713.927 279.578 713.927 283.315V329.716H704.585V284.561C704.585 277.398 703.028 272.104 699.602 268.367C696.176 264.63 691.817 262.762 686.211 262.762C680.917 262.762 676.869 264.319 673.443 267.744C670.329 271.17 668.461 275.218 668.461 280.512V329.716H655.07V270.547H655.381ZM781.504 278.021C781.504 275.529 781.192 273.038 780.258 270.858C779.324 268.678 778.39 266.81 776.833 264.941C775.276 263.384 773.719 262.139 771.85 261.204C769.982 260.27 768.113 259.959 766.245 259.959C759.705 259.959 754.411 263.073 750.363 268.99C746.314 274.907 744.446 283.003 744.446 292.969C744.446 297.951 745.068 302.623 746.626 306.359C747.871 310.096 749.74 313.522 752.231 316.013C754.722 318.505 757.214 320.685 760.328 321.93C763.442 323.176 766.556 324.11 769.67 324.11C773.719 324.11 776.833 323.487 779.324 322.553C781.815 321.619 783.684 320.373 785.241 319.127C786.798 317.882 788.044 316.636 788.978 315.702C789.912 314.768 790.535 314.145 791.469 314.145C793.026 314.145 793.649 314.768 793.649 316.325C793.649 317.882 792.715 319.75 791.158 321.619C789.601 323.487 787.421 325.356 784.929 326.913C782.438 328.47 779.635 329.716 776.21 330.65C773.096 331.584 769.982 332.207 766.867 332.207C761.573 332.207 756.902 331.273 752.542 329.404C748.183 327.536 744.446 325.044 741.331 321.619C738.217 318.193 735.726 314.145 733.858 309.474C731.989 304.802 731.055 299.508 731.055 293.591C731.055 287.675 731.989 282.381 733.858 277.709C735.726 273.038 738.217 268.678 741.331 265.564C744.446 262.139 748.183 259.647 752.542 257.779C756.902 255.91 761.573 254.976 766.556 254.976C770.293 254.976 773.719 255.599 777.144 256.845C780.57 258.09 783.372 259.959 786.175 262.139C788.667 264.319 790.846 266.81 792.403 269.613C793.961 272.415 794.583 275.53 794.583 278.955C794.583 283.003 793.961 286.74 792.403 289.855C790.846 293.28 788.978 296.083 786.487 298.574C783.995 301.065 781.193 302.934 777.767 304.491C774.341 306.048 770.916 306.671 767.179 306.671C762.196 306.671 758.148 306.048 754.722 304.802C751.608 303.557 750.051 302 750.051 299.82C750.051 298.263 750.674 297.64 751.92 297.64C752.854 297.64 754.411 297.951 755.968 298.886C757.525 299.82 760.328 300.131 764.376 300.131C766.556 300.131 769.047 299.508 770.916 298.574C773.096 297.64 774.964 296.083 776.521 294.214C778.078 292.346 779.324 289.855 780.258 287.363C781.192 283.938 781.504 281.135 781.504 278.021ZM854.686 268.99C853.752 268.99 852.818 268.367 851.572 267.433C850.327 266.498 848.769 265.253 846.278 264.007C843.475 262.45 840.984 261.516 839.116 261.204C837.247 260.893 835.067 260.582 832.576 260.582C827.905 260.582 824.479 261.516 821.988 263.696C819.497 265.876 818.251 268.056 818.251 270.858C818.251 272.415 818.562 273.661 819.185 274.595C819.808 275.53 820.742 276.775 822.299 277.709C823.856 278.644 825.725 279.889 827.905 281.135C830.396 282.381 833.199 283.626 836.624 285.183C844.41 288.92 850.326 292.657 854.063 296.394C857.8 300.131 859.669 304.802 859.669 310.719C859.669 316.948 857.178 322.242 852.195 325.979C847.212 329.716 840.673 331.584 832.264 331.584C826.348 331.584 820.742 330.338 816.071 327.847C811.4 325.356 807.974 322.242 805.483 317.882L813.891 312.899C815.137 316.636 817.316 319.439 820.119 322.242C822.922 324.733 826.659 325.979 831.019 325.979C836.313 325.979 840.05 324.733 842.853 322.242C845.655 319.75 846.901 316.636 846.901 313.211C846.901 311.031 846.589 309.474 845.655 307.917C844.721 306.359 843.787 305.114 842.23 303.868C840.673 302.623 838.804 301.377 836.313 300.443C833.821 299.508 831.33 297.951 828.216 296.394C821.676 293.28 816.382 290.166 812.645 286.74C808.597 283.315 806.728 279.267 806.728 274.284C806.728 268.056 809.22 263.073 813.891 259.336C818.562 255.91 824.791 254.042 832.264 254.042C835.067 254.042 837.87 254.353 840.984 255.288C843.787 256.222 846.278 257.156 848.458 258.402C850.638 259.647 852.506 260.893 853.752 262.45C854.998 264.007 855.932 265.253 855.932 266.499C856.555 268.367 855.932 268.99 854.686 268.99ZM920.706 268.99C919.772 268.99 918.838 268.367 917.592 267.433C916.346 266.498 914.789 265.253 912.298 264.007C909.495 262.45 907.004 261.516 905.135 261.204C903.267 260.893 901.087 260.582 898.596 260.582C893.924 260.582 890.499 261.516 888.008 263.696C885.516 265.876 884.271 268.056 884.271 270.858C884.271 272.415 884.582 273.661 885.205 274.595C885.828 275.53 886.762 276.775 888.319 277.709C889.876 278.644 891.745 279.889 893.924 281.135C896.416 282.381 899.218 283.626 902.644 285.183C910.429 288.92 916.346 292.657 920.083 296.394C923.82 300.131 925.689 304.802 925.689 310.719C925.689 316.948 923.197 322.242 918.215 325.979C913.232 329.716 906.692 331.584 898.284 331.584C892.367 331.584 886.762 330.338 882.091 327.847C877.42 325.356 873.994 322.242 871.503 317.882L879.911 312.899C881.156 316.636 883.336 319.439 886.139 322.242C888.942 324.733 892.679 325.979 897.039 325.979C902.333 325.979 906.07 324.733 908.872 322.242C911.675 319.75 912.921 316.636 912.921 313.211C912.921 311.031 912.609 309.474 911.675 307.917C910.741 306.359 909.807 305.114 908.25 303.868C906.693 302.623 904.824 301.377 902.333 300.443C899.841 299.508 897.35 297.951 894.236 296.394C887.696 293.28 882.402 290.166 878.665 286.74C874.617 283.315 872.748 279.267 872.748 274.284C872.748 268.056 875.24 263.073 879.911 259.336C884.582 255.91 890.81 254.042 898.284 254.042C901.087 254.042 903.89 254.353 907.004 255.288C909.807 256.222 912.298 257.156 914.478 258.402C916.658 259.647 918.526 260.893 919.772 262.45C921.017 264.007 921.952 265.253 921.952 266.499C922.575 268.367 921.952 268.99 920.706 268.99Z" fill="#1DB4C1"/>
<path d="M406.561 478.883L362.963 356.186H378.223L409.053 448.053L419.018 417.223C419.641 415.043 420.575 412.863 421.198 410.683C421.821 408.503 422.132 406.323 422.132 403.832C422.132 401.652 422.132 400.095 421.821 399.161C421.509 398.227 421.509 396.981 421.198 396.358C420.886 395.424 420.886 394.801 420.575 394.49C420.263 394.178 420.264 393.244 420.264 392.621C420.264 391.064 420.886 390.441 422.443 390.441C423.066 390.441 423.689 390.753 424.623 391.687C425.558 392.621 426.492 393.555 427.115 395.112C428.049 396.358 428.672 398.227 429.295 400.095C429.917 401.964 430.229 403.832 430.229 405.701C430.229 407.569 430.229 409.749 429.606 411.929C428.983 414.109 428.672 415.977 428.049 417.846L406.561 478.883ZM463.239 478.883L419.641 356.186H434.9L465.73 448.053L497.183 356.186H506.214L463.239 478.883ZM552.303 424.385C552.303 421.894 551.992 419.403 551.058 417.223C550.123 415.043 549.189 413.175 547.632 411.306C546.075 409.749 544.518 408.503 542.649 407.569C540.781 406.635 538.912 406.323 537.044 406.323C530.504 406.323 525.21 409.437 521.162 415.354C517.113 421.271 515.245 429.368 515.245 439.333C515.245 444.316 515.868 448.987 517.425 452.724C518.67 456.461 520.539 459.887 523.03 462.378C525.522 464.869 528.013 467.049 531.127 468.295C534.241 469.54 537.355 470.475 540.469 470.475C544.518 470.475 547.632 469.852 550.123 468.918C552.615 467.983 554.483 466.738 556.04 465.492C557.597 464.246 558.843 463.001 559.777 462.066C560.711 461.132 561.334 460.509 562.268 460.509C563.825 460.509 564.448 461.132 564.448 462.689C564.448 464.246 563.514 466.115 561.957 467.983C560.4 469.852 558.22 471.72 555.729 473.277C553.237 474.834 550.435 476.08 547.009 477.014C543.895 477.949 540.781 478.571 537.667 478.571C532.373 478.571 527.701 477.637 523.342 475.769C518.982 473.9 515.245 471.409 512.131 467.983C509.017 464.558 506.525 460.509 504.657 455.838C502.788 451.167 501.854 445.873 501.854 439.956C501.854 434.039 502.788 428.745 504.657 424.074C506.525 419.403 509.017 415.043 512.131 411.929C515.245 408.503 518.982 406.012 523.342 404.143C527.701 402.275 532.373 401.341 537.355 401.341C541.092 401.341 544.518 401.964 547.943 403.209C551.369 404.455 554.172 406.323 556.974 408.503C559.466 410.683 561.646 413.175 563.203 415.977C564.76 418.78 565.382 421.894 565.382 425.32C565.382 429.368 564.76 433.105 563.203 436.219C561.646 439.645 559.777 442.447 557.286 444.939C554.794 447.43 551.992 449.298 548.566 450.856C545.141 452.413 541.715 453.035 537.978 453.035C532.995 453.035 528.947 452.413 525.522 451.167C522.407 449.921 520.85 448.364 520.85 446.184C520.85 444.627 521.473 444.005 522.719 444.005C523.653 444.005 525.21 444.316 526.767 445.25C528.324 446.184 531.127 446.496 535.175 446.496C537.355 446.496 539.847 445.873 541.715 444.939C543.895 444.004 545.763 442.447 547.32 440.579C548.878 438.71 550.123 436.219 551.058 433.728C551.992 430.302 552.303 427.499 552.303 424.385ZM624.24 424.385C624.24 421.894 623.928 419.403 622.994 417.223C622.06 415.043 621.126 413.175 619.569 411.306C618.012 409.749 616.454 408.503 614.586 407.569C612.717 406.635 610.849 406.323 608.98 406.323C602.441 406.323 597.147 409.437 593.098 415.354C589.05 421.271 587.181 429.368 587.181 439.333C587.181 444.316 587.804 448.987 589.361 452.724C590.607 456.461 592.476 459.887 594.967 462.378C597.458 464.869 599.949 467.049 603.064 468.295C606.178 469.54 609.292 470.475 612.406 470.475C616.454 470.475 619.569 469.852 622.06 468.918C624.551 467.983 626.42 466.738 627.977 465.492C629.534 464.246 630.78 463.001 631.714 462.066C632.648 461.132 633.271 460.509 634.205 460.509C635.762 460.509 636.385 461.132 636.385 462.689C636.385 464.246 635.451 466.115 633.894 467.983C632.337 469.852 630.157 471.72 627.665 473.277C625.174 474.834 622.371 476.08 618.946 477.014C615.832 477.949 612.717 478.571 609.603 478.571C604.309 478.571 599.638 477.637 595.278 475.769C590.918 473.9 587.181 471.409 584.067 467.983C580.953 464.558 578.462 460.509 576.593 455.838C574.725 451.167 573.791 445.873 573.791 439.956C573.791 434.039 574.725 428.745 576.593 424.074C578.462 419.403 580.953 415.043 584.067 411.929C587.181 408.503 590.918 406.012 595.278 404.143C599.638 402.275 604.309 401.341 609.292 401.341C613.029 401.341 616.454 401.964 619.88 403.209C623.306 404.455 626.108 406.323 628.911 408.503C631.402 410.683 633.582 413.175 635.139 415.977C636.696 418.78 637.319 421.894 637.319 425.32C637.319 429.368 636.696 433.105 635.139 436.219C633.582 439.645 631.714 442.447 629.222 444.939C626.731 447.43 623.928 449.298 620.503 450.856C617.389 452.413 613.652 453.035 609.915 453.035C604.932 453.035 600.884 452.413 597.458 451.167C594.344 449.921 592.787 448.364 592.787 446.184C592.787 444.627 593.41 444.005 594.655 444.005C595.59 444.005 597.147 444.316 598.704 445.25C600.261 446.184 603.064 446.496 607.112 446.496C609.292 446.496 611.783 445.873 613.652 444.939C615.832 444.004 617.7 442.447 619.257 440.579C620.814 438.71 622.06 436.219 622.994 433.728C623.617 430.302 624.24 427.499 624.24 424.385ZM663.789 476.08H650.399V356.186H663.789V476.08ZM670.641 439.956L700.536 402.898H709.567L682.163 437.153L708.944 476.08H694.931L670.641 439.956ZM762.508 424.385C762.508 421.894 762.196 419.403 761.262 417.223C760.328 415.043 759.394 413.175 757.837 411.306C756.279 409.749 754.722 408.503 752.854 407.569C750.985 406.635 749.117 406.323 747.248 406.323C740.709 406.323 735.415 409.437 731.366 415.354C727.318 421.271 725.449 429.368 725.449 439.333C725.449 444.316 726.072 448.987 727.629 452.724C728.875 456.461 730.743 459.887 733.235 462.378C735.726 464.869 738.217 467.049 741.332 468.295C744.446 469.54 747.56 470.475 750.674 470.475C754.722 470.475 757.836 469.852 760.328 468.918C762.819 467.983 764.688 466.738 766.245 465.492C767.802 464.246 769.047 463.001 769.982 462.066C770.916 461.132 771.539 460.509 772.473 460.509C774.03 460.509 774.653 461.132 774.653 462.689C774.653 464.246 773.719 466.115 772.162 467.983C770.605 469.852 768.425 471.72 765.933 473.277C763.442 474.834 760.639 476.08 757.214 477.014C754.1 477.949 750.985 478.571 747.871 478.571C742.577 478.571 737.906 477.637 733.546 475.769C729.186 473.9 725.449 471.409 722.335 467.983C719.221 464.558 716.73 460.509 714.861 455.838C712.993 451.167 712.059 445.873 712.059 439.956C712.059 434.039 712.993 428.745 714.861 424.074C716.73 419.403 719.221 415.043 722.335 411.929C725.449 408.503 729.186 406.012 733.546 404.143C737.906 402.275 742.577 401.341 747.56 401.341C751.297 401.341 754.722 401.964 758.148 403.209C761.574 404.455 764.376 406.323 767.179 408.503C769.982 410.683 771.85 413.175 773.407 415.977C774.964 418.78 775.587 421.894 775.587 425.32C775.587 429.368 774.964 433.105 773.407 436.219C771.85 439.645 769.982 442.447 767.49 444.939C764.999 447.43 762.196 449.298 758.771 450.856C755.657 452.413 751.92 453.035 748.183 453.035C743.2 453.035 739.152 452.413 735.726 451.167C732.612 449.921 731.055 448.364 731.055 446.184C731.055 444.627 731.678 444.005 732.923 444.005C733.858 444.005 735.415 444.316 736.972 445.25C738.529 446.184 741.332 446.496 745.38 446.496C747.56 446.496 749.74 445.873 751.92 444.939C754.1 444.004 755.968 442.447 757.525 440.579C759.082 438.71 760.328 436.219 761.262 433.728C762.196 430.302 762.508 427.499 762.508 424.385ZM788.355 416.911C790.846 412.552 794.583 408.815 799.566 405.701C804.549 402.586 810.777 400.718 817.94 400.718C822.611 400.718 826.97 401.652 830.707 403.209C834.444 404.766 837.559 406.946 839.739 409.438C842.23 412.24 844.098 415.043 845.032 418.78C846.278 422.205 846.901 425.942 846.901 429.679V476.08H837.559V430.925C837.559 423.763 836.001 418.469 832.576 414.732C829.15 410.995 824.791 409.126 819.185 409.126C813.891 409.126 809.843 410.683 806.417 414.109C803.303 417.534 801.434 421.583 801.434 426.877V476.08H788.044V416.911H788.355ZM914.478 473.277C909.495 476.392 903.267 478.26 896.104 478.26C891.122 478.26 886.451 477.326 882.091 475.457C877.731 473.589 873.994 471.098 870.568 467.672C867.454 464.246 864.652 460.198 862.783 455.527C860.915 450.856 859.98 445.562 859.98 439.645C859.98 433.728 860.915 428.434 862.783 423.763C864.652 419.091 866.831 414.732 869.946 411.617C873.06 408.192 876.485 405.701 880.845 403.832C884.893 401.964 889.565 401.029 894.236 401.029C895.793 401.029 897.35 401.341 898.907 401.652C900.464 402.275 902.021 402.586 903.267 403.521C904.513 404.143 905.758 405.078 906.381 406.012C907.315 406.946 907.627 407.88 907.627 408.503C907.627 409.749 907.004 410.372 905.447 410.372C904.513 410.372 902.956 409.749 901.398 408.815C899.841 407.88 897.661 407.258 894.859 407.258C888.63 407.258 883.648 410.06 879.599 415.977C875.551 421.583 873.683 429.679 873.683 439.956C873.683 450.233 875.862 458.018 879.911 463.624C883.959 469.229 889.253 472.032 896.104 472.032C901.398 472.032 905.447 470.475 908.25 467.049C911.052 463.624 912.609 458.641 912.609 452.413V356.497H926V462.378C923.197 466.426 919.461 470.163 914.478 473.277Z" fill="#03A6C9"/>
<path d="M161.478 11.7618L165.215 12.0732C187.637 14.2531 214.107 19.8586 232.169 40.7233C244.003 54.737 255.837 71.2419 259.885 90.861C255.214 67.8163 242.757 50.0657 226.252 34.495C209.125 18.9243 185.457 13.0074 165.527 10.5161C169.575 9.27044 174.869 8.33622 181.097 9.27046C195.422 11.7618 210.37 16.7444 222.827 25.7754C222.515 26.3983 221.893 27.3325 221.581 27.6439C239.643 39.1662 250.231 55.6712 258.017 73.4218C261.754 82.4528 264.868 93.0409 262.999 104.875C260.819 117.02 253.345 127.296 242.134 133.525C243.692 132.902 243.069 133.836 243.069 134.459C242.757 134.77 243.069 135.082 246.183 133.525C243.38 135.082 243.069 134.77 243.069 134.459C254.591 128.542 262.688 118.265 264.868 105.497C266.736 93.0409 263.622 82.4528 259.885 73.4218C251.788 55.3598 241.2 39.7891 224.384 26.7097C237.775 36.3635 247.117 49.1315 254.902 61.8994C261.754 74.9788 270.473 90.861 264.556 111.414C258.328 131.345 236.84 143.179 217.844 139.753C198.848 136.95 184.211 124.805 175.18 109.546C173.623 107.055 171.132 101.449 170.198 98.3349C168.018 86.1898 168.329 73.4218 172.378 61.8994C175.18 65.6364 181.409 56.9168 177.049 77.1588H179.54C186.08 56.9168 196.979 59.7195 193.865 72.7989C190.751 86.8126 204.142 112.349 222.515 112.971C234.349 112.66 241.512 105.186 239.02 92.1067C234.972 71.5533 216.598 47.263 196.668 38.232C189.194 34.1836 173.312 33.8722 168.952 32.3151C165.838 31.3808 165.527 30.1352 166.149 28.5781C181.409 29.5124 196.357 32.3151 208.502 40.1004C223.138 49.4429 233.726 65.6364 239.955 81.83C234.349 65.9479 223.45 49.4429 208.502 40.1004C196.668 32.3151 182.031 28.5782 166.772 27.3325C167.395 26.0868 168.018 24.8412 167.084 23.5955C167.084 23.5955 162.412 23.5955 159.921 23.2841C150.267 20.4814 152.447 16.1216 157.43 13.3189C158.364 13.3189 159.921 12.3846 161.478 11.7618Z" fill="#D7E1E6"/>
<path d="M302.237 51.9339C300.057 36.986 296.943 24.5295 293.829 13.9414C291.338 9.27017 291.338 13.3186 293.206 20.1697C297.566 47.2627 296.321 48.1969 293.829 34.8061C293.829 34.8061 290.092 8.02454 282.307 9.58161C277.324 9.58161 278.258 19.5468 278.881 29.2007C279.193 42.9029 288.224 88.6808 289.781 115.151C292.272 151.586 292.895 184.285 288.847 221.966C288.535 224.146 288.535 226.014 288.224 228.194C287.601 227.571 286.667 226.949 285.732 226.637C277.013 220.098 263.311 213.869 248.674 217.606C234.349 221.032 225.318 230.997 219.09 239.717C218.467 240.339 218.156 241.274 217.844 241.897C214.419 227.883 209.436 214.492 203.208 201.724C169.264 130.099 97.0155 75.29 33.7984 61.8991C5.45972 56.2937 -3.88269 60.6535 1.41135 63.1448C6.39398 66.259 25.0788 70.3073 49.6806 80.8954C53.4175 82.1411 60.2686 85.2552 59.023 88.6808C8.57388 72.7987 7.32814 80.8954 15.7363 82.1411C40.338 86.5009 64.317 97.4004 85.4932 112.037C91.0986 115.151 101.687 122.314 106.669 126.362C136.565 148.784 161.478 177.434 177.36 209.509C185.146 225.703 191.063 242.831 194.177 260.27C195.734 268.99 196.668 278.021 196.979 286.74C197.291 289.543 196.979 292.346 196.979 294.837C196.668 298.263 196.668 303.245 196.668 303.245C196.668 303.245 197.914 310.096 208.502 311.03C217.533 311.965 216.91 308.539 217.533 307.294C218.467 304.491 220.024 298.262 220.024 298.262L220.335 297.64C224.695 280.201 230.612 264.318 242.134 251.862C250.854 242.519 262.376 240.028 275.767 250.928C278.881 253.419 281.996 256.222 284.798 259.647L286.978 262.139L287.601 262.761L287.912 263.073C297.255 272.104 305.352 263.696 305.663 255.91L305.974 254.042L306.909 246.879C307.531 243.454 307.843 240.34 308.154 236.914C308.777 232.243 309.4 226.949 309.711 220.72C309.711 219.786 310.023 218.852 310.023 217.918C311.58 198.61 312.514 178.991 312.203 159.372C312.203 171.206 311.891 182.728 311.58 194.25C311.891 182.728 312.203 169.648 312.203 155.323H312.514C311.891 119.199 307.22 87.7465 302.237 51.9339ZM254.591 237.537C260.197 235.98 266.425 237.848 272.653 241.585C272.03 241.585 271.719 241.274 271.096 241.274C267.048 238.782 262.688 237.537 258.639 237.537C252.723 237.225 247.117 240.651 242.134 245.634C241.823 245.634 241.823 245.945 241.512 245.945C245.249 241.897 249.608 238.782 254.591 237.537ZM279.816 253.73C272.342 246.256 263.622 241.585 257.394 242.208C246.494 242.519 232.481 258.09 225.941 276.152C230.924 260.893 243.069 244.699 255.837 240.962C256.771 240.962 257.394 240.651 258.328 240.651C262.376 240.339 267.048 242.519 271.719 245.634C274.522 247.502 277.947 250.616 281.684 254.665C281.373 254.665 281.061 254.976 281.061 254.976L279.816 253.73ZM302.86 301.065C293.518 306.048 293.829 309.473 289.469 319.75C284.798 341.861 266.113 364.282 245.871 364.905C236.218 366.462 218.467 353.383 215.041 334.075C215.041 334.075 205.076 336.878 193.554 330.961L194.177 336.878L194.488 341.549L195.422 350.892C197.291 376.116 194.8 401.652 189.194 426.565C173.623 496.322 126.288 561.719 88.9187 607.185C54.6631 647.046 74.5936 639.884 112.275 600.957C112.586 601.268 117.257 594.106 121.306 594.729C85.1818 634.901 96.3926 634.278 97.3269 633.344C115.7 613.102 133.451 592.549 150.89 570.75C154.627 565.144 162.724 553.622 165.838 547.705C187.326 513.45 204.142 476.391 214.107 437.776C218.467 419.091 222.204 399.784 223.138 380.476C230.924 387.95 245.249 395.424 260.196 390.441C271.096 385.147 278.258 378.607 283.553 371.133C283.553 372.068 283.553 372.068 283.553 371.133C283.241 374.559 283.241 375.493 282.618 377.985C278.259 411.929 268.916 445.561 254.28 477.014C248.363 490.094 243.692 501.616 239.332 511.27C267.359 468.606 284.175 416.289 288.847 361.791C288.847 361.48 289.158 361.168 289.158 360.857C284.175 417.534 269.85 469.229 242.134 513.138L234.661 524.038C231.235 527.463 227.187 534.937 234.349 534.314C236.529 534.003 243.38 524.349 246.806 518.744C269.539 480.751 285.11 439.022 292.272 395.424C296.321 370.511 296.321 370.199 292.272 395.424C285.421 439.022 271.096 482.62 248.051 521.235C248.363 523.104 249.92 523.726 255.525 515.318C264.556 504.419 282.307 458.952 288.535 432.171C298.812 395.735 302.86 357.12 302.86 316.947V301.065ZM278.57 367.708C280.75 364.282 282.93 360.857 284.487 357.431V358.677C283.864 359.923 282.93 361.48 282.307 362.725C277.013 372.691 264.868 387.016 248.986 386.393C261.754 386.704 273.587 376.428 278.57 367.708ZM244.003 390.753C234.972 388.261 228.432 383.901 223.138 379.23V376.739C228.744 382.344 235.595 387.327 245.871 389.195C265.802 391.375 277.324 376.427 283.864 365.839C283.864 367.085 283.553 368.019 283.553 369.265C276.701 379.542 264.245 393.555 244.003 390.753Z" fill="#D7E1E6"/>
<path d="M173.935 3.35345L177.672 3.66484C200.094 5.84474 226.564 11.4502 244.626 32.0035C256.46 46.0172 268.293 62.5221 272.342 82.1412C267.67 59.0966 255.214 41.346 238.709 25.7753C221.581 10.2046 197.914 4.2877 177.983 1.79638C182.032 0.550725 187.326 -0.383546 193.554 0.550696C207.879 3.04201 222.827 8.02465 235.283 17.0557C234.972 17.6785 234.349 18.6127 234.038 18.9242C252.1 30.4465 262.688 46.9514 270.473 64.702C274.21 73.733 277.324 84.3211 275.456 96.1548C273.276 108.3 265.802 118.577 254.591 124.805C256.148 124.182 255.525 125.116 255.525 125.739C255.214 126.051 255.525 126.362 258.639 124.805C255.837 126.362 255.525 126.051 255.525 125.739C267.048 119.822 275.144 109.546 277.324 96.7777C279.193 84.3211 276.079 73.733 272.342 64.702C264.245 46.64 253.657 31.0693 236.84 17.9899C250.231 27.6438 259.574 40.4117 267.359 53.1797C274.21 66.2591 282.93 82.1412 277.013 102.695C270.785 122.625 249.297 134.459 230.301 131.033C211.305 128.231 196.668 116.085 187.637 100.826C186.08 98.3347 183.589 92.7293 182.654 89.6152C180.474 77.47 180.786 64.702 184.834 53.1797C187.637 56.9167 193.865 48.1971 189.506 68.439H191.997C198.536 48.1971 209.436 50.9998 206.322 64.0792C203.208 78.0929 216.599 103.629 234.972 104.252C246.806 103.94 253.968 96.4663 251.477 83.3869C247.429 62.8336 229.055 38.5432 209.125 29.5122C201.651 25.4638 185.769 25.1524 181.409 23.5954C178.295 22.6611 177.983 21.4154 178.606 19.8584C193.865 20.7926 208.813 23.5954 220.958 31.3807C235.595 40.7232 246.183 56.9167 252.411 73.1102C246.806 57.2281 235.906 40.7232 220.958 31.3807C209.125 23.5954 194.488 19.8584 179.229 18.6127C179.852 17.3671 180.474 16.1214 179.54 14.8758C179.54 14.8758 174.869 14.8757 172.378 14.5643C162.724 11.7616 164.904 7.40182 169.886 4.59909C170.821 4.59909 172.378 3.97628 173.935 3.35345Z" fill="url(#paint0_linear_300_96)"/>
<path d="M314.694 43.2145C312.514 28.2666 309.4 15.8101 306.286 5.22198C303.794 0.550768 303.794 4.59915 305.663 11.4503C310.023 38.5433 308.777 39.4775 306.286 26.0867C306.286 26.0867 302.549 -0.69487 294.763 0.862201C289.781 0.862201 290.715 10.8275 291.338 20.4813C291.649 34.1835 300.68 79.9614 302.237 106.432C304.729 142.867 305.352 175.566 301.303 213.247C300.992 215.427 300.992 217.295 300.68 219.475C300.057 218.852 299.123 218.229 298.189 217.918C289.469 211.378 275.767 205.15 261.131 208.887C246.806 212.312 237.775 222.278 231.546 230.997C230.924 231.62 230.612 232.554 230.301 233.177C226.875 219.164 221.893 205.773 215.664 193.005C181.72 121.379 109.472 66.5706 46.255 53.1798C17.9163 47.5743 8.57385 51.9341 13.8679 54.4254C18.8505 57.5396 37.5354 61.5879 62.1371 72.176C65.8741 73.4217 72.7252 76.5358 71.4795 79.9614C21.0304 64.0793 19.7847 72.1761 28.1929 73.4217C52.7946 77.7815 76.7736 88.681 97.9497 103.317C103.555 106.432 114.143 113.594 119.126 117.643C149.022 140.064 173.935 168.714 189.817 200.79C197.602 216.984 203.519 234.111 206.633 251.551C208.19 260.27 209.125 269.301 209.436 278.021C209.747 280.823 209.436 283.626 209.436 286.429C209.125 289.855 209.125 294.837 209.125 294.837C209.125 294.837 210.37 301.688 220.958 302.623C229.989 303.557 229.367 300.131 229.989 298.886C230.924 296.083 232.481 289.855 232.481 289.855L232.792 289.232C237.152 271.793 243.069 255.91 254.591 243.454C263.311 234.111 274.833 231.62 288.224 242.52C291.338 245.011 294.452 247.814 297.255 251.239L299.435 253.731L300.058 254.353L300.369 254.665C309.711 263.696 317.808 255.288 318.12 247.502L318.431 245.634L319.365 238.471C319.988 235.046 320.299 231.931 320.611 228.506C321.234 223.835 321.857 218.541 322.168 212.312C322.168 211.378 322.479 210.444 322.479 209.51C324.036 190.202 324.971 170.583 324.659 150.964C324.659 162.798 324.348 174.32 324.036 185.842C324.348 174.32 324.659 161.24 324.659 146.915H324.971C324.036 110.48 319.677 79.3385 314.694 43.2145ZM266.736 228.817C272.342 227.26 278.57 229.129 284.798 232.866C284.175 232.866 283.864 232.554 283.241 232.554C279.193 230.063 274.833 228.817 270.785 228.817C264.868 228.506 259.262 231.932 254.28 236.914C253.968 236.914 253.968 237.226 253.657 237.226C257.705 233.177 262.065 230.063 266.736 228.817ZM292.272 245.011C284.798 237.537 276.079 232.866 269.85 233.489C258.951 233.8 244.937 249.371 238.397 267.433C243.38 252.173 255.525 235.98 268.293 232.243C269.227 232.243 269.85 231.932 270.785 231.932C274.833 231.62 279.504 233.8 284.175 236.914C286.978 238.783 290.404 241.897 294.141 245.945C293.829 245.945 293.518 246.257 293.518 246.257L292.272 245.011Z" fill="url(#paint1_linear_300_96)"/>
<path d="M315.317 292.346C305.974 297.328 306.286 300.754 301.926 311.031C297.255 333.141 278.57 355.563 258.328 356.186C248.674 357.743 230.924 344.663 227.498 325.356C227.498 325.356 217.533 328.159 206.01 322.242L206.633 328.158L206.945 332.83L207.879 342.172C209.747 367.397 207.256 392.933 201.651 417.846C186.08 487.603 138.745 553 101.375 598.466C67.1197 638.327 87.0503 631.165 124.731 592.238C125.043 592.549 129.714 585.387 133.762 586.009C97.6384 626.182 108.849 625.559 109.784 624.625C128.157 604.383 145.908 583.83 163.347 562.031C167.084 556.425 175.181 544.903 178.295 538.986C199.782 504.73 216.599 467.672 226.564 429.057C230.924 410.372 234.661 391.064 235.595 371.756C243.38 379.23 257.705 386.704 272.653 381.722C283.553 376.428 290.715 369.888 296.009 362.414C296.009 363.348 296.009 363.348 296.009 362.414C295.698 365.84 295.698 366.774 295.075 369.265C290.715 403.209 281.373 436.842 266.736 468.295C260.819 481.374 256.148 492.897 251.788 502.55C279.816 459.887 296.632 407.569 301.303 353.072C301.303 352.76 301.615 352.449 301.615 352.137C296.632 408.815 282.307 460.51 254.591 504.419L247.117 515.318C243.692 518.744 239.643 526.218 246.806 525.595C248.986 525.284 255.837 515.63 259.262 510.024C281.996 472.032 297.566 430.302 304.729 386.704C308.777 361.791 308.777 361.48 304.729 386.704C297.878 430.302 283.553 473.9 260.508 512.516C260.819 514.384 262.376 515.007 267.982 506.599C277.013 495.699 294.764 450.233 300.992 423.451C311.268 386.704 315.317 348.4 315.317 308.228V292.346ZM233.104 376.116C233.104 375.805 233.104 375.805 233.104 376.116C233.415 375.805 233.415 375.805 233.104 376.116ZM291.027 359.3C293.207 355.874 295.386 352.449 296.943 349.023V350.269C296.321 351.515 295.386 353.072 294.764 354.317C289.469 364.283 277.324 378.608 261.442 377.985C274.21 377.985 285.733 368.019 291.027 359.3ZM256.46 382.033C247.429 379.542 240.889 375.182 235.595 370.511V368.02C241.2 373.625 248.051 378.608 258.328 380.476C278.259 382.656 289.781 367.708 296.321 357.12C296.321 358.366 296.009 359.3 296.009 360.546C289.158 371.134 276.702 384.836 256.46 382.033Z" fill="url(#paint2_linear_300_96)"/>
<defs>
<linearGradient id="paint0_linear_300_96" x1="225.399" y1="42.5449" x2="63.4668" y2="542.362" gradientUnits="userSpaceOnUse">
<stop stop-color="#03A6C9"/>
<stop offset="0.463" stop-color="#64C0B9"/>
<stop offset="1" stop-color="#ADDBDB"/>
</linearGradient>
<linearGradient id="paint1_linear_300_96" x1="203.052" y1="35.3015" x2="41.1135" y2="535.124" gradientUnits="userSpaceOnUse">
<stop stop-color="#03A6C9"/>
<stop offset="0.463" stop-color="#64C0B9"/>
<stop offset="1" stop-color="#ADDBDB"/>
</linearGradient>
<linearGradient id="paint2_linear_300_96" x1="336.951" y1="78.6846" x2="175.019" y2="578.504" gradientUnits="userSpaceOnUse">
<stop stop-color="#03A6C9"/>
<stop offset="0.463" stop-color="#64C0B9"/>
<stop offset="1" stop-color="#ADDBDB"/>
</linearGradient>
</defs>
</svg>